<svg xmlns="http://www.w3.org/2000/svg" x="0px" y="0px" viewBox="0 0 864 864" enable-background="new 0 0 864 864"><style>.ls0{fill:#fff}.fs0{fill:#000}</style><g class="fs0"><g><g><path d="M283,593.1c-7.4-4.3-10.5-13.7-11.7-22.3c-1.4-9.2-1.1-26.1-12.5-28.9c-7.6-1.8-14.3,4.9-19.2,10.9 c-10,12.3-20.1,24.6-30.1,37c-10,12.3-26.7,25.6-39.5,16.3c-9.6-7-7.8-22.8,0.3-31.5c8.1-8.7,20.2-12.2,31.5-15.8 s23.3-8.2,29.9-18.1c7.3-10.8,5.7-26.8-3.6-35.9c-9.3-9.2-25.3-10.5-36-3.1c-9.6,6.7-14.4,18.8-23.9,25.7 c-11.3,8.2-31-3.2-22.8-17.1c2-3.4,5.8-5.4,9.4-7.2c10.6-5.2,21.5-10,32.5-14.3c8.8-3.4,17.8-6.7,24.9-13 c21.2-18.7,3.5-46.7-19.3-52.7c-17.3-4.5-35.5-0.1-52.7,4.3c-24.9,6.4-49.8,12.8-74.6,19.1c-9.6,2.5-19.6,4.9-29.3,3 c-9.7-1.9-19.1-9.5-19.6-19.4c-0.5-9.4,7.2-17.6,16.1-20.9s18.5-2.7,27.9-2.1c34,2.2,68,4.3,102,6.5c13.8,0.9,28.3,1.6,40.5-4.9 c12.2-6.5,20-23.1,12.4-34.6c-6-9.1-18.2-11.1-29-12.3c-25.1-2.8-50.3-5.5-75.4-8.3c-9.4-1-21.8-6-19.7-15.2 c1.5-6.8,10.3-8.9,17.3-8.6c19,0.9,36.8,9.3,55.3,13.6c15,3.5,32.7,3.8,46.1-4.8c16.8-10.8,3-30.9-8.7-39.3 c-10.7-7.7-23.4-12.6-32.8-21.8c-2.6-2.5-5-5.5-5.9-9c-3-11.8,12.7-20.9,24.6-18s20.9,12.3,31.4,18.5s26.1,8.1,33.3-1.8 c6.5-9,1.8-21.9-5.2-30.5c-7-8.6-16.3-15.9-20-26.4c-3.7-10.5,2.7-25.4,13.7-24.4c3.7,0.3,7.1,2.4,10,4.7 c12,9.7,18.6,24.6,28.4,36.5c9.9,11.9,26.6,21.3,40.5,14.4c10.1-5,14.9-17.2,14.3-28.4c-0.6-11.2-5.6-21.7-10.8-31.6 c-14.1-27-30.5-52.8-48.9-77.1c-7.2-9.5-14.9-19.1-17.5-30.8c-2.6-11.6,2-25.8,13.1-30c9.9-3.7,21.3,1.9,27.6,10.3 S306,73,308.2,83.3c5.1,23.1,10.3,46.2,15.4,69.4c3.9,17.3,8.4,35.9,21.9,47.5s38.8,10.4,44.9-6.3c3.5-9.6-0.3-20.1-4.3-29.5 c-3.9-9.4-8.1-19.8-5-29.5c3.1-9.7,17.3-15.8,23.7-7.9c2.4,3,3.1,7,3.2,10.9c0.3,13.2-4.5,26.1-4.1,39.2s9.6,28,22.7,27.1 c11.5-0.8,18.7-12.9,21.2-24.2c2.4-11.2,2.3-23.4,8.2-33.3c5.9-9.9,21.7-15,28.7-5.8c4.6,6.1,2.9,14.6,1,22 c-3.1,11.8-6.3,23.6-9.4,35.5c-2.4,9.1-4.6,19.5,0.4,27.4c8,12.4,28.2,9,38.3-1.7c10.2-10.7,14.1-25.7,21.4-38.5 c7.2-12.8,21.1-24.6,35.3-20.8c6.4,14.3,0,31-8.2,44.3c-8.3,13.3-18.7,26.1-21.1,41.6c-1.4,8.7,1.5,19.6,10,22.1 c8.4,2.4,16.3-4.6,22.1-11.1c18.2-20,36.3-39.9,54.5-59.9c7.5-8.2,15.3-16.7,25.5-21.1c10.2-4.4,23.6-3.7,30.8,4.7 c7.9,9.1,5.7,23.7-1.5,33.2s-18.4,15.3-29.1,20.6c-15.6,7.9-31.2,15.7-46.8,23.6c-10.7,5.4-22.9,13.2-22.5,25.2 c0.4,11.9,14.2,19.4,26.2,18.5c11.9-1,22.5-7.5,33.6-12c4.4-1.8,9.3-3.3,13.9-2.1c10.4,2.7,12.7,17.8,6.5,26.6 c-6.2,8.7-17.3,12.3-27.7,14.9c-10.4,2.6-21.5,5.1-29.2,12.6c-14.1,13.9-6.4,42.3,12.8,47.2c12.4,3.1,25.2-2.4,36.8-7.8 c16.6-7.7,33.1-15.5,49.7-23.2c6.6-3.1,13.4-6.2,20.7-6.6c19.5-1,35.3,22.9,26.8,40.5c-8.2,16.9-30.4,21.3-49,19.5 c-18.7-1.9-37.5-7.9-55.8-3.7c-18.3,4.2-34.5,25.1-25.1,41.3c5,8.6,15.2,12.6,24.7,15.6c29.7,9.6,60.2,16.9,91.1,21.8 c8.6,1.4,26.4,3.5,25.5,16.3c-0.4,5.8-5.3,10.5-10.8,12.1c-5.5,1.7-11.5,0.8-17-0.8c-7.8-2.3-15.2-5.9-22.5-9.5 c-21.1-10.4-43.2-25-67.8-19.8c-13.2,2.8-25.6,12.1-30.9,24.7c-5.6,13.7,1,29.5,10.2,40.1c16.3,18.9,42.5,25.1,60.5,42 c5.5,5.2,10.9,12.8,8,19.9c-2.1,5.1-8,7.7-13.5,7.9c-11.5,0.3-21.2-7.9-29.8-15.5c-10.1-9.1-20.3-18.2-30.5-27.3 c-8.4-7.6-17.6-17.4-28.3-21.8c-8.5-3.5-19.4-2.9-25.5,3.9c-1.9,2.1-3.3,4.7-4.3,7.5c-3.9,10.5-2.5,22.5,2.6,32.5 c5.7,11.4,15.6,17.8,24.6,26.1c10.9,10,21.8,21.1,33.7,30c8.5,7.6,17.7,17.2,15.9,28.4c-2.3,14-21.6,19.2-34.3,12.7 c-12.6-6.5-19.8-20-26.2-32.7c-6.4-12.8-12.9-25.6-19.3-38.3c-6.3-12.5-13.1-25.6-24.9-32.9c-11.9-7.4-30.3-6.1-36.8,6.3 c-5.3,10-0.8,22.4,5.1,32s13.4,19.1,14.3,30.4c0.9,11.3-9.1,24.2-19.9,20.8c-5.3-1.7-8.9-6.6-11.4-11.6 c-6.4-12.4-8.8-26.6-16.1-38.6c-3.7-6.1-9.4-14.6-17.2-13.1c-7.6,1.4-13.9,7.8-17.6,14.3c-6.1,10.6-8,23.2-7.6,35.4 c1.1,31.2,11.7,63,18.6,93.3c2.5,10.8,5,22.1,2.8,32.9c-2.2,10.9-10.4,21.4-21.4,22.6c-11.7,1.2-22.3-8.5-26.1-19.6 c-3.8-11.1-2.5-23.3-1.2-34.9c3.6-30.9,7.1-61.8,10.7-92.6c1.4-11.8,2.6-24.3-2.6-35c-5.2-10.7-19.4-17.8-29.3-11.2 c-6.4,4.2-8.8,12.3-10.7,19.7c-2.7,10.3-5.4,20.6-8.1,30.9c-2.7,10.3-13.6,31.5-26.7,18.5c-9.8-9.6-11-28.7-9.3-41.2 c1.9-13.6,5.6-28.1,0.1-40.8c-3.9-9.1-12.6-16.1-22.4-17.9c-6.9-1.3-14.3-0.2-20.5-3.4C283.5,593.3,283.2,593.2,283,593.1z"/><path d="M728.5,444.9c33-6.4,65.9-9.2,99.1-4.1c1.9,0.3,3.9,0.6,5.7,1.2c9.8,3.5,21.4,7,19.7,19.9c-1.7,12.9-13.5,14.3-24.1,13.7 C793.1,473.7,760.8,459.7,728.5,444.9z"/><path d="M710.4,272.1c12.9,1.9,20.1,18.2,10.5,28.2c-3,3.1-7.2,5.4-11.5,5.3c-10-0.2-19-7.6-18.4-17.9c0.5-8.7,7.2-15.3,16-15.8 C708.1,271.9,709.3,272,710.4,272.1z"/><path d="M245.5,621.3c0.6,3.3,2.7,6.3,6.6,8.3c11.7,5.9,21.7-8.6,14.8-18.5c-1.1-1.6-2.5-2.9-4.3-3.6c-3.5-1.4-7.5-0.3-11,1 C246.3,610.3,244.5,616,245.5,621.3z"/></g></g></g><g transform="translate(184.099540582 186.499540582) scale(.52986)"><g><path class="ls0" d="M263.8,166.7l-7.9-7.9c-12.8,8.2-24.9,17.4-36.4,27.3c-22.7,19.6-42.6,42.3-59.2,67.5 c-29.8,45.3-48.6,98.6-52.6,155.9c-0.5,7.4-0.8,14.9-0.8,22.5s0.3,15.1,0.8,22.5c3.9,57.3,22.7,110.6,52.6,155.9 c17.1,26,37.8,49.4,61.5,69.5c11.6,9.8,23.8,18.8,36.7,27c1.7,1.1,3.5,2.2,5.2,3.2c14.3,8.7,29.4,16.3,45,22.7V211.7l-20.2-20.2 L263.8,166.7z M263.8,655.9c-3.4-2.5-6.7-5.2-10-7.9c-6.8-5.6-13.4-11.6-19.8-18c-13.6-13.7-25.7-28.5-36.1-44.2 c-25.8-39.1-41.3-84-45-131.3c-0.6-7.4-0.9-15-0.9-22.5s0.3-15.1,0.9-22.5c3.7-47.3,19.2-92.2,45-131.3 c10.4-15.8,22.5-30.6,36.1-44.2c5.6-5.6,11.4-11,17.4-16l12.3,12.3V655.9z"/></g><g><path class="ls0" d="M454.5,107.8c-7.4-0.5-14.9-0.8-22.5-0.8s-15.1,0.3-22.5,0.8c-13,0.9-25.8,2.5-38.3,4.9 c-15.4,2.9-30.4,6.9-45,12v48c14.5-5.9,29.6-10.6,45-14c12.5-2.8,25.4-4.7,38.3-5.7v558.2c-13-1-25.8-2.9-38.3-5.7 c-15.4-3.4-30.5-8.1-45-14v48c14.6,5,29.6,9,45,12c12.5,2.4,25.3,4,38.3,4.9c7.4,0.5,14.9,0.8,22.5,0.8s15.1-0.3,22.5-0.8 c13-0.9,25.8-2.5,38.3-4.9c15.4-2.9,30.4-6.9,45-12v-48c-14.5,5.9-29.6,10.6-45,14c-12.5,2.8-25.4,4.7-38.3,5.7V152.9 c13,1,25.8,2.9,38.3,5.7c15.4,3.4,30.5,8.1,45,14v-48c-14.6-5-29.6-9-45-12C480.3,110.3,467.5,108.7,454.5,107.8z"/></g><g><path class="ls0" d="M703.6,253.6l-37.6,24.7c25.8,39.1,41.3,84,45,131.3c0.6,7.4,0.9,14.9,0.9,22.5s-0.3,15.1-0.9,22.5 c-3.7,47.3-19.2,92.2-45,131.3c-10.4,15.8-22.5,30.6-36.1,44.2c-9.4,9.4-19.3,18-29.8,25.9v-502c-14.3-8.7-29.4-16.3-45-22.7v601.6 c15.6-6.4,30.7-14,45-22.7c41.5-25.1,76.8-59.2,103.4-99.7c29.8-45.3,48.6-98.6,52.6-155.9c0.5-7.4,0.8-14.9,0.8-22.5 s-0.3-15.1-0.8-22.5C752.3,352.2,733.5,298.9,703.6,253.6z"/></g></g></svg>